<svg width="47" height="24" viewBox="0 0 47 24" fill="none" xmlns="http://www.w3.org/2000/svg">
<path d="M24 2C29.523 2 34 6.477 34 12C34 17.523 29.523 22 24 22C18.477 22 14 17.523 14 12C14 6.477 18.477 2 24 2ZM24 6C23.7348 6 23.4804 6.10536 23.2929 6.29289C23.1054 6.48043 23 6.73478 23 7V12C23.0001 12.2652 23.1055 12.5195 23.293 12.707L26.293 15.707C26.4816 15.8892 26.7342 15.99 26.9964 15.9877C27.2586 15.9854 27.5094 15.8802 27.6948 15.6948C27.8802 15.5094 27.9854 15.2586 27.9877 14.9964C27.99 14.7342 27.8892 14.4816 27.707 14.293L25 11.586V7C25 6.73478 24.8946 6.48043 24.7071 6.29289C24.5196 6.10536 24.2652 6 24 6Z" fill="#292929"/>
</svg>
