<svg width="0" height="0" class="hidden">
  <symbol fill="none" xmlns="http://www.w3.org/2000/svg" viewBox="0 0 45 36" id="desktop">
    <path d="M15.4195 13.3818C12.8891 13.3818 10.4558 13.3818 8.02249 13.3818C7.28652 13.3818 6.54906 13.3902 5.81309 13.3758C5.28015 13.3662 4.89799 13.1178 4.88157 12.6979C4.84425 11.8136 4.86962 10.9281 4.86962 10.0162H30.1254C30.1254 10.9389 30.1612 11.8484 30.1105 12.7543C30.0866 13.179 29.6641 13.3794 29.0267 13.3794C26.2246 13.3818 23.4211 13.3794 20.619 13.3794C20.304 13.3794 19.9876 13.3794 19.6218 13.3794C19.68 13.5018 19.7099 13.5846 19.7562 13.6613C20.3473 14.6452 20.931 15.6315 21.5431 16.6082C21.6177 16.7269 21.8342 16.8625 21.9865 16.8637C26.2948 16.8757 30.6031 16.8721 34.9114 16.8697C34.9577 16.8697 35.0025 16.8529 34.9935 16.8541C34.6427 15.6951 34.2919 14.5384 33.9411 13.383C33.8724 13.1586 33.7933 12.9342 33.7485 12.7075C33.6739 12.3367 33.8754 12.1172 34.3322 12.116C36.7984 12.1076 39.2645 12.1064 41.7307 12.116C42.2308 12.1184 42.4069 12.3691 42.2726 12.8299C41.9456 13.9433 41.6142 15.0556 41.2769 16.1666C41.2097 16.3862 41.1097 16.601 41.0141 16.8469C41.1261 16.8553 41.2589 16.8721 41.3918 16.8721C42.2726 16.8745 43.1533 16.8721 44.0341 16.8733C44.8582 16.8733 44.991 16.9789 44.991 17.6268C44.991 20.4452 44.991 23.2649 44.991 26.0833C44.991 29.1849 44.9851 32.2877 45 35.3892C45.0015 35.7312 44.9104 35.8728 44.4461 35.8524C43.6952 35.8212 42.9399 35.8248 42.189 35.8512C41.7516 35.8668 41.6142 35.7636 41.6172 35.4C41.6351 32.5168 41.6277 29.6336 41.6277 26.7504V20.57H32.6632C31.9332 18.8267 30.7001 18.0096 28.9072 18.0468C27.1442 18.084 25.9484 18.9178 25.3453 20.558H3.36783V21.0488C3.36783 25.8109 3.36783 30.5743 3.36783 35.3364C3.36783 35.6748 3.15834 35.8444 2.73935 35.8452C1.98696 35.8452 1.23308 35.8344 0.480692 35.85C0.143312 35.862 0 35.796 0 35.4936C0.008957 29.4824 0.00597133 23.4712 0.008957 17.46C0.008957 17.0173 0.21049 16.8793 0.840465 16.8793C3.16331 16.8769 5.48467 16.8793 7.80752 16.8781C9.48845 16.8781 11.1709 16.8685 12.8518 16.8853C13.2131 16.8889 13.3877 16.7905 13.537 16.5338C14.1356 15.4995 14.7626 14.476 15.4195 13.383V13.3818ZM38.0479 15.4515C38.6928 15.4419 39.2227 15.0028 39.2167 14.482C39.2123 13.9625 38.6704 13.5294 38.0255 13.5294C37.3641 13.5294 36.8058 13.9913 36.8297 14.5192C36.8536 15.0424 37.4015 15.4611 38.0479 15.4515ZM17.5094 12.2899C17.9274 12.2863 18.2708 12.0056 18.2589 11.6768C18.2469 11.3493 17.8827 11.0781 17.4706 11.0901C17.0765 11.1021 16.7496 11.3721 16.7466 11.6876C16.7436 12.0212 17.087 12.2935 17.508 12.2887L17.5094 12.2899Z" fill="#1195FF"></path>
    <path d="M30.1597 9.12238H4.84872C4.84872 8.9688 4.84872 8.83202 4.84872 8.69404C4.84872 6.14558 4.84872 3.59712 4.84872 1.04866C4.85021 0.229169 5.14132 0 6.17137 0C13.7311 0 21.2893 0 28.849 0C29.8686 0 30.1597 0.233969 30.1597 1.06066C30.1597 3.60912 30.1597 6.15758 30.1597 8.70603V9.12238Z" fill="#1195FF"></path>
    <path d="M32.1183 35.8356H29.5133C29.5133 35.208 29.5133 34.5949 29.5133 33.9806C29.5133 33.8522 29.5103 33.7238 29.5133 33.5942C29.5178 33.3051 29.3551 33.1047 28.9908 33.1023C28.6266 33.0999 28.4579 33.2967 28.4579 33.587C28.4579 34.205 28.4579 34.8217 28.4579 35.4396C28.4579 35.5644 28.4579 35.6892 28.4579 35.832H25.8544C25.8544 35.6964 25.8544 35.562 25.8544 35.4264C25.8544 34.4485 25.8589 33.4707 25.8514 32.4928C25.8484 32.134 25.6215 31.9373 25.2692 31.9721C24.8826 32.0105 24.796 32.2264 24.7975 32.5C24.8019 33.4647 24.799 34.4293 24.799 35.3952C24.799 35.5332 24.799 35.6712 24.799 35.8499H22.7478C21.7551 35.8499 20.7623 35.8595 19.7711 35.8427C19.5591 35.8391 19.3501 35.7408 19.1411 35.6868C19.2411 35.538 19.3098 35.3664 19.4471 35.2464C19.7935 34.9429 20.1637 34.6585 20.5354 34.3753C21.5804 33.5775 22.088 32.6032 22.0641 31.4441C22.0521 30.8298 22.0626 30.2143 22.0626 29.5724H35.8907C35.8982 29.7128 35.9101 29.8603 35.9161 30.0079C35.9445 30.7782 35.9041 31.5557 36.0161 32.3188C36.1311 33.1071 36.661 33.7598 37.3671 34.3142C37.8135 34.6645 38.2643 35.0125 38.6928 35.3772C38.7838 35.4552 38.8226 35.6052 38.8077 35.7156C38.8002 35.7684 38.6107 35.8427 38.5032 35.8439C36.7461 35.8523 34.989 35.8499 33.1767 35.8499V35.4036C33.1767 33.8858 33.1752 32.3668 33.1782 30.849C33.1782 30.603 33.1529 30.3763 32.8095 30.2887C32.4184 30.1891 32.1243 30.4159 32.1228 30.8274C32.1183 32.3452 32.1213 33.8642 32.1213 35.382C32.1213 35.5212 32.1213 35.6604 32.1213 35.8367L32.1183 35.8356Z" fill="#1195FF"></path>
    <path d="M22.076 28.6606C22.076 27.9563 22.0372 27.2879 22.0865 26.6232C22.1357 25.9633 22.7866 25.517 23.642 25.505C24.5347 25.4918 25.4274 25.5026 26.3784 25.5026C26.3784 25.3142 26.3784 25.1642 26.3784 25.0143C26.3784 23.6884 26.3545 22.3638 26.3858 21.038C26.4232 19.4146 28.3653 18.4127 30.1179 19.105C31.1405 19.5082 31.5928 20.2113 31.5973 21.1112C31.6018 22.4238 31.5973 23.7364 31.5988 25.0478C31.5988 25.1858 31.5988 25.3226 31.5988 25.5002C32.4632 25.5002 33.2753 25.5002 34.0874 25.5002C35.3115 25.5026 35.9056 25.9813 35.9101 26.9712C35.9131 27.5231 35.9101 28.0738 35.9101 28.6594H22.0745L22.076 28.6606ZM29.8985 21.0608C29.9059 20.6516 29.5178 20.3241 29.0117 20.3133C28.4833 20.3025 28.0653 20.63 28.0698 21.0536C28.0727 21.4591 28.4773 21.7843 28.9804 21.7855C29.4835 21.7867 29.891 21.4651 29.8985 21.0596V21.0608Z" fill="#1195FF"></path>
    <path d="M16.3301 29.5641V33.1252H4.45463V29.5641H16.3301ZM10.3722 31.7646C11.0619 31.7646 11.3306 31.647 11.3276 31.3458C11.3246 31.0423 11.0485 30.9199 10.3677 30.9211C9.71687 30.9211 9.45562 31.0363 9.43771 31.329C9.41979 31.6374 9.69298 31.7646 10.3707 31.7646H10.3722Z" fill="#1195FF"></path>
    <path d="M4.44118 28.657V25.4474H16.3152V28.657H4.44118ZM10.5722 26.64C9.70491 26.64 9.43919 26.7552 9.43769 27.0576C9.43769 27.3635 9.71536 27.4895 10.3916 27.4895C11.0544 27.4895 11.3694 27.3479 11.3216 27.042C11.25 26.5848 10.7977 26.6376 10.5722 26.64Z" fill="#1195FF"></path>
    <path d="M4.45164 24.5463V21.4303H16.3062V24.5463H4.45164ZM10.3767 23.4148C11.0574 23.4148 11.3247 23.2984 11.3291 22.9997C11.3336 22.6961 11.053 22.5653 10.3901 22.5653C9.71836 22.5653 9.44368 22.6877 9.43771 22.9889C9.43174 23.2912 9.70343 23.4148 10.3752 23.4148H10.3767Z" fill="#1195FF"></path>
    <path d="M40.4812 11.2412H35.5832C35.5832 10.2454 35.4981 9.26631 35.6071 8.30044C35.7175 7.33097 36.9461 6.61347 38.1434 6.67826C39.4228 6.74785 40.4334 7.53014 40.4737 8.53441C40.5095 9.42949 40.4812 10.3258 40.4812 11.24V11.2412Z" fill="#1195FF"></path>
  </symbol>
</svg>
