<svg width="0" height="0" class="hidden">
  <symbol fill="none" xmlns="http://www.w3.org/2000/svg" viewBox="0 0 45 36" id="house">
    <path d="M6.41147 35.8543C5.6373 35.6151 5.37514 35.154 5.37787 34.5092C5.39562 30.9403 5.39016 27.3715 5.37924 23.8026C5.37924 23.5156 5.45297 23.3611 5.81207 23.2209C6.24762 23.0501 6.64632 22.7881 6.99312 22.5119C12.0232 18.519 17.0424 14.5173 22.0629 10.5157C22.1858 10.4167 22.2827 10.2971 22.3646 10.2145C27.2104 14.0747 32.0001 17.8904 36.8049 21.717C35.6976 22.4129 35.389 23.5427 34.7063 24.4953C34.5616 24.6976 34.3554 24.8922 34.1233 25.0325C33.599 25.3489 33.0392 25.6273 32.4971 25.9252C30.1965 27.191 30.1842 29.7311 32.4726 31.011C32.5081 31.0306 32.5436 31.0534 32.5818 31.0686C34.0523 31.6537 34.989 32.5866 35.546 33.8132C35.9679 34.743 36.7844 35.4095 37.9914 35.7368C38.0515 35.7532 38.0925 35.813 38.1416 35.8532H27.594C27.5872 35.7368 27.5736 35.6216 27.5736 35.5052C27.5736 32.7976 27.5845 30.0911 27.5695 27.3834C27.5544 24.6541 24.6216 22.7011 21.2819 23.1785C18.8078 23.5319 17.0232 25.2761 17.0137 27.3845C17 30.0921 17.0096 32.7987 17.0123 35.5063C17.0123 35.6216 17.0355 35.7379 17.0478 35.8532H6.41147V35.8543Z" fill="#1195FF"></path>
    <path d="M44.9986 18.0003C44.8403 18.1645 44.7023 18.3439 44.5221 18.4896C43.4312 19.3693 42.3307 20.2414 41.2315 21.1157C40.7018 21.5365 40.4355 21.5376 39.9098 21.1189C34.223 16.5899 28.5376 12.0609 22.8535 7.5297C22.7306 7.43184 22.6432 7.30352 22.4684 7.11214C22.2827 7.30896 22.1926 7.43293 22.0697 7.53079C16.428 12.0294 10.7821 16.5247 5.1376 21.0211C4.50679 21.5235 4.28833 21.5224 3.65752 21.0211C2.55976 20.1468 1.46062 19.2725 0.364217 18.3972C-0.120494 18.0101 -0.12186 17.7817 0.362852 17.3957C1.84293 16.2148 3.32437 15.0349 4.80581 13.8562C4.89729 13.7833 4.9956 13.7159 5.09118 13.6452C5.38474 13.8605 5.64143 14.0846 5.94181 14.264C7.91479 15.4405 10.6988 14.9316 11.8348 13.1831C12.2786 12.5002 12.6595 11.7923 13.1033 11.1094C13.2371 10.9039 13.4528 10.7125 13.6876 10.5733C14.3103 10.2047 14.9656 9.87305 15.6019 9.51965C17.6227 8.39636 17.9872 6.37815 16.4512 4.83621C16.4157 4.80033 16.3815 4.76336 16.3242 4.70246C16.4211 4.61873 16.5126 4.53283 16.6123 4.45236C18.3409 3.07354 20.0708 1.6958 21.8008 0.318067C22.3319 -0.104932 22.5913 -0.106019 23.1211 0.314804C30.2689 6.00626 37.4153 11.6977 44.559 17.3924C44.7297 17.5294 44.8539 17.7034 45 17.86V18.0003H44.9986Z" fill="#1195FF"></path>
    <path d="M44.9986 28.7123C44.6914 28.9656 44.3924 29.2255 44.0729 29.4691C43.9268 29.58 43.7479 29.6724 43.5677 29.7453C42.2282 30.2879 41.3462 31.1328 40.8601 32.2626C40.714 32.6019 40.4751 32.9151 40.2771 33.2391C40.0573 33.5979 39.6886 33.7926 39.1943 33.7915C38.7001 33.7915 38.3341 33.5936 38.1157 33.2337C37.6719 32.4997 37.2446 31.7592 36.7762 31.0349C36.6438 30.8294 36.4281 30.6359 36.1932 30.4989C35.4982 30.0922 34.7719 29.7192 34.0619 29.3288C33.1825 28.846 33.1866 28.1077 34.066 27.6194C34.2817 27.4998 34.4865 27.3617 34.72 27.2682C36.1509 26.6973 37.0725 25.7893 37.5927 24.5954C37.7265 24.2898 37.9355 24.0038 38.1184 23.7124C38.3396 23.359 38.6932 23.1622 39.1998 23.1622C39.7064 23.1622 40.0614 23.3601 40.2784 23.7157C40.7331 24.4584 41.1687 25.2087 41.637 25.9459C41.749 26.1232 41.9306 26.2928 42.1313 26.4091C42.8044 26.8006 43.5226 27.1442 44.1807 27.5498C44.5016 27.7477 44.7282 28.0413 44.9972 28.2914V28.7112L44.9986 28.7123Z" fill="#1195FF"></path>
    <path d="M19.597 35.8542C19.6161 35.7053 19.6503 35.5563 19.6503 35.4073C19.653 32.7486 19.6489 30.0899 19.6543 27.4323C19.6571 26.3797 20.3671 25.5729 21.5099 25.2967C23.0678 24.9194 24.7186 25.724 24.8715 27.018C24.9766 27.9054 24.892 28.8079 24.892 29.7615C24.5178 29.7615 24.1314 29.7594 23.7437 29.7615C22.8835 29.767 22.3018 30.1878 22.2977 30.8054C22.2936 31.4253 22.8767 31.857 23.7287 31.8635C24.1082 31.8668 24.4878 31.8635 24.9589 31.8635V35.8542H19.597Z" fill="#1195FF"></path>
    <path d="M14.7595 6.87185C14.739 7.25135 14.5315 7.55365 14.1259 7.7733C13.2548 8.24524 12.381 8.71391 11.5235 9.20106C11.3324 9.3098 11.1644 9.47291 11.0593 9.63928C10.5555 10.4407 10.0653 11.2486 9.5915 12.062C9.33344 12.5046 8.94157 12.7906 8.31896 12.7927C7.69634 12.796 7.29765 12.51 7.03959 12.0696C6.55625 11.2475 6.06334 10.4276 5.55542 9.61427C5.45711 9.4566 5.296 9.30219 5.11577 9.20106C4.28015 8.72913 3.42679 8.27786 2.58298 7.81463C1.61492 7.28289 1.62038 6.46408 2.5939 5.93016C3.34077 5.52021 4.08081 5.10048 4.84269 4.70901C5.23865 4.50567 5.51583 4.25665 5.70971 3.91195C6.13298 3.15729 6.60131 2.41895 7.04369 1.67082C7.30311 1.23368 7.69634 0.95422 8.32988 0.960744C8.94157 0.967269 9.32388 1.23694 9.57648 1.66429C10.0626 2.48637 10.5527 3.30627 11.0634 4.11855C11.1685 4.28601 11.3419 4.44586 11.5331 4.55351C12.3796 5.03414 13.2412 5.4952 14.1014 5.96061C14.5042 6.17809 14.7308 6.47169 14.7595 6.86968V6.87185Z" fill="#1195FF"></path>
    <path d="M30.0067 2.72012C30.1651 2.71251 30.3235 2.69837 30.4818 2.69837C32.063 2.69729 33.6441 2.69511 35.2252 2.69837C36.3093 2.70055 36.8104 3.10289 36.8118 3.96193C36.8131 5.34946 36.8118 6.73589 36.8118 8.03207C34.6108 6.27701 32.3592 4.4828 30.1064 2.6875C30.0722 2.69837 30.0395 2.70925 30.0053 2.72012H30.0067Z" fill="#1195FF"></path>
  </symbol>
</svg>
