<svg width="0" height="0" class="hidden">
  <symbol fill="none" xmlns="http://www.w3.org/2000/svg" viewBox="0 0 14 16" id="location">
    <path d="M7 7.56924C6.33696 7.56924 5.70107 7.35938 5.23223 6.98583C4.76339 6.61227 4.5 6.10562 4.5 5.57734C4.5 5.04905 4.76339 4.5424 5.23223 4.16885C5.70107 3.79529 6.33696 3.58543 7 3.58543C7.66304 3.58543 8.29893 3.79529 8.76777 4.16885C9.23661 4.5424 9.5 5.04905 9.5 5.57734C9.5 5.83892 9.43534 6.09794 9.3097 6.33961C9.18406 6.58128 8.99991 6.80086 8.76777 6.98583C8.53562 7.17079 8.26002 7.31752 7.95671 7.41762C7.65339 7.51772 7.3283 7.56924 7 7.56924ZM7 0C5.14348 0 3.36301 0.587611 2.05025 1.63356C0.737498 2.67952 0 4.09814 0 5.57734C0 9.76034 7 15.9353 7 15.9353C7 15.9353 14 9.76034 14 5.57734C14 4.09814 13.2625 2.67952 11.9497 1.63356C10.637 0.587611 8.85652 0 7 0Z" fill="#292929"></path>
  </symbol>
</svg>
