<svg width="0" height="0" class="hidden">
  <symbol fill="none" xmlns="http://www.w3.org/2000/svg" viewBox="0 0 20 21" id="location-2">
    <path d="M3.125 8.06616C3.125 4.26919 6.20303 1.19116 10 1.19116C13.797 1.19116 16.875 4.26919 16.875 8.06616C16.875 10.996 15.1971 13.7425 13.6105 15.6994C12.8076 16.6896 12.0061 17.5042 11.4057 18.0713C11.1051 18.3552 10.8538 18.5781 10.6766 18.7308C10.588 18.8072 10.5177 18.8662 10.469 18.9065C10.4447 18.9267 10.4257 18.9423 10.4125 18.953L10.397 18.9656L10.3926 18.9691L10.3912 18.9702C10.3912 18.9702 10.3904 18.9709 10 18.4828C9.60957 18.9709 9.60924 18.9706 9.60924 18.9706L9.60741 18.9691L9.603 18.9656L9.58752 18.953C9.57429 18.9423 9.55531 18.9267 9.53096 18.9065C9.48226 18.8662 9.41205 18.8072 9.3234 18.7308C9.14616 18.5781 8.89491 18.3552 8.5943 18.0713C7.99385 17.5042 7.19244 16.6896 6.38953 15.6994C4.80289 13.7425 3.125 10.996 3.125 8.06616ZM10 18.4828L9.60924 18.9706C9.8375 19.1532 10.1622 19.1535 10.3904 18.9709L10 18.4828ZM10 17.6624C10.149 17.5312 10.3348 17.3634 10.5474 17.1626C11.1189 16.6229 11.8799 15.8489 12.6395 14.9121C14.1779 13.0148 15.625 10.553 15.625 8.06616C15.625 4.95955 13.1066 2.44116 10 2.44116C6.89339 2.44116 4.375 4.95955 4.375 8.06616C4.375 10.553 5.82211 13.0148 7.36047 14.9121C8.12006 15.8489 8.88115 16.6229 9.45258 17.1626C9.66521 17.3634 9.85102 17.5312 10 17.6624Z" fill="#BCBCBC"></path>
    <path d="M6.875 8.06616C6.875 6.34028 8.27411 4.94116 10 4.94116C11.7259 4.94116 13.125 6.34028 13.125 8.06616C13.125 9.79205 11.7259 11.1912 10 11.1912C8.27411 11.1912 6.875 9.79205 6.875 8.06616ZM10 6.19116C8.96447 6.19116 8.125 7.03063 8.125 8.06616C8.125 9.10169 8.96447 9.94116 10 9.94116C11.0355 9.94116 11.875 9.10169 11.875 8.06616C11.875 7.03063 11.0355 6.19116 10 6.19116Z" fill="#BCBCBC"></path>
  </symbol>
</svg>
