<svg width="0" height="0" class="hidden">
  <symbol fill="none" xmlns="http://www.w3.org/2000/svg" viewBox="0 0 22 24" id="login">
    <path d="M11.2425 4.22474e-05C7.42135 -0.0111205 4.05871 2.19074 2.13685 5.51724C2.05166 5.66515 2.14687 5.8605 2.30473 5.8605H4.06623C4.1865 5.8605 4.29926 5.80189 4.37443 5.69864C4.54983 5.46143 4.73776 5.23259 4.93571 5.01492C5.75256 4.10794 6.70222 3.39352 7.75962 2.89678C8.8521 2.38329 10.0147 2.12097 11.215 2.12097C12.4152 2.12097 13.5778 2.3805 14.6703 2.89678C15.7277 3.39352 16.6774 4.10794 17.4942 5.01492C18.3111 5.92189 18.95 6.97957 19.3985 8.15445C19.8621 9.37119 20.0951 10.6633 20.0951 12C20.0951 13.3368 19.8596 14.6289 19.3985 15.8456C18.9525 17.0205 18.3111 18.0781 17.4942 18.9851C16.6774 19.8921 15.7277 20.6065 14.6703 21.1033C13.577 21.6176 12.4018 21.8814 11.215 21.8791C10.0147 21.8791 8.8521 21.6167 7.75962 21.1033C6.70429 20.607 5.74531 19.8877 4.93571 18.9851C4.73776 18.7647 4.55234 18.5358 4.37443 18.3014C4.29926 18.1981 4.184 18.1395 4.06623 18.1395H2.30473C2.14687 18.1395 2.04915 18.3349 2.13685 18.4828C4.05621 21.8009 7.40381 24 11.215 24C17.1334 24 21.9393 18.6949 21.9994 12.1228C22.0596 5.44468 17.2462 0.0167864 11.2425 4.22474e-05ZM8.06832 15.1256V13.0047H0.200455C0.0902048 13.0047 0 12.9042 0 12.7814V11.2186C0 11.0958 0.0902048 10.9954 0.200455 10.9954H8.06832V8.87444C8.06832 8.68747 8.26376 8.58142 8.39406 8.69863L11.9496 11.8242C11.9736 11.8451 11.993 11.8718 12.0063 11.9022C12.0196 11.9327 12.0265 11.9661 12.0265 12C12.0265 12.0339 12.0196 12.0673 12.0063 12.0978C11.993 12.1283 11.9736 12.155 11.9496 12.1758L8.39406 15.3014C8.26376 15.4158 8.06832 15.3126 8.06832 15.1256Z" fill="white"></path>
  </symbol>
</svg>
