<svg width="0" height="0" class="hidden">
  <symbol fill="none" xmlns="http://www.w3.org/2000/svg" viewBox="0 0 20 21" id="mail">
    <path fill-rule="evenodd" clip-rule="evenodd" d="M1.04175 3.89941C1.04175 3.55424 1.32157 3.27441 1.66675 3.27441H18.3334C18.6786 3.27441 18.9584 3.55424 18.9584 3.89941V16.3994C18.9584 16.7446 18.6786 17.0244 18.3334 17.0244H1.66675C1.32157 17.0244 1.04175 16.7446 1.04175 16.3994V3.89941ZM2.29175 4.52441V15.7744H17.7084V4.52441H2.29175Z" fill="#BCBCBC"></path>
    <path fill-rule="evenodd" clip-rule="evenodd" d="M1.16678 3.52445C1.37389 3.24831 1.76564 3.19234 2.04178 3.39945L10.0001 9.3682L17.9585 3.39945C18.2346 3.19234 18.6263 3.24831 18.8335 3.52445C19.0406 3.80059 18.9846 4.19234 18.7085 4.39945L10.3751 10.6495C10.1529 10.8161 9.84734 10.8161 9.62512 10.6495L1.29178 4.39945C1.01564 4.19234 0.959678 3.80059 1.16678 3.52445Z" fill="#BCBCBC"></path>
    <path fill-rule="evenodd" clip-rule="evenodd" d="M1.04175 3.89941C1.04175 3.55424 1.32157 3.27441 1.66675 3.27441H10.0001C10.3453 3.27441 10.6251 3.55424 10.6251 3.89941C10.6251 4.24459 10.3453 4.52441 10.0001 4.52441H2.29175V10.1494C2.29175 10.4946 2.01193 10.7744 1.66675 10.7744C1.32157 10.7744 1.04175 10.4946 1.04175 10.1494V3.89941Z" fill="#BCBCBC"></path>
    <path fill-rule="evenodd" clip-rule="evenodd" d="M9.37508 3.89941C9.37508 3.55424 9.6549 3.27441 10.0001 3.27441H18.3334C18.6786 3.27441 18.9584 3.55424 18.9584 3.89941V10.1494C18.9584 10.4946 18.6786 10.7744 18.3334 10.7744C17.9882 10.7744 17.7084 10.4946 17.7084 10.1494V4.52441H10.0001C9.6549 4.52441 9.37508 4.24459 9.37508 3.89941Z" fill="#BCBCBC"></path>
  </symbol>
</svg>
