<svg width="0" height="0" class="hidden">
  <symbol fill="none" xmlns="http://www.w3.org/2000/svg" viewBox="0 0 20 21" id="phone">
    <path d="M4.88259 4.08233C4.21069 4.08233 3.79156 4.68441 3.98351 5.25328C4.67174 7.29297 5.95425 10.3614 7.86691 12.274C9.77954 14.1866 12.8479 15.4692 14.8877 16.1574C15.4565 16.3493 16.0586 15.9303 16.0586 15.2583V13.1872C16.0586 13.1131 16.0184 13.0448 15.9537 13.0088L14.1496 12.0058C14.0907 11.9731 14.0194 11.9715 13.9592 12.0016L12.0352 12.9636C11.9149 13.0238 11.7781 13.0426 11.646 13.0173L11.7614 12.4159C11.646 13.0173 11.646 13.0173 11.646 13.0173L11.6443 13.0169L11.642 13.0165L11.6358 13.0153L11.6173 13.0114C11.6024 13.0082 11.5821 13.0037 11.5569 12.9978C11.5065 12.9859 11.4364 12.9681 11.3501 12.9432C11.1777 12.8934 10.9388 12.8147 10.6611 12.6964C10.1082 12.4608 9.38652 12.0617 8.73287 11.408C8.07933 10.7545 7.67912 10.0317 7.44241 9.47805C7.32352 9.19997 7.2442 8.96063 7.19399 8.78792C7.16885 8.70143 7.15089 8.63127 7.13885 8.58085C7.13282 8.55562 7.12827 8.5353 7.12504 8.52031L7.12115 8.50185L7.11991 8.49571L7.11945 8.49343L7.11927 8.49249C7.11927 8.49249 7.11911 8.49168 7.72018 8.37477L7.11927 8.49249C7.09348 8.35991 7.11209 8.22173 7.17249 8.10093L8.13458 6.17669C8.16469 6.11649 8.16319 6.04524 8.13049 5.98632L7.13185 4.18742C7.09582 4.12253 7.02746 4.08233 6.95337 4.08233H4.88259ZM8.36966 8.445L8.36996 8.44602C8.40849 8.57854 8.4718 8.77049 8.56848 8.99663C8.76289 9.45137 9.08552 10.0288 9.59883 10.5421M9.59883 10.5421C10.1121 11.0553 10.6881 11.3766 11.1412 11.5697C11.3666 11.6658 11.5578 11.7285 11.6897 11.7665L13.4114 10.9063C13.8334 10.6953 14.3324 10.7062 14.7447 10.9355L16.5487 11.9384C17.0021 12.1905 17.2833 12.6685 17.2833 13.1872V15.2583C17.2833 16.6958 15.926 17.8003 14.4961 17.3178C12.4308 16.6209 9.12711 15.2662 7.00095 13.14C4.87476 11.0138 3.51999 7.71011 2.82312 5.64481C2.34066 4.21495 3.44509 2.85767 4.88259 2.85767H6.95337C7.47244 2.85767 7.9506 3.1392 8.20253 3.59291L9.20123 5.39191C9.43003 5.80408 9.44085 6.30267 9.22994 6.72441L8.36966 8.445" fill="#BCBCBC"></path>
  </symbol>
</svg>
