<svg width="0" height="0" class="hidden">
  <symbol fill="none" xmlns="http://www.w3.org/2000/svg" viewBox="0 0 45 39" id="waste">
    <path d="M24.0101 0C24.0184 0.125688 24.0323 0.250201 24.0323 0.375889C24.0323 4.90887 24.0323 9.44185 24.0323 13.9748C24.0323 14.1111 24.0323 14.2474 24.0323 14.4083H20.9884C20.9745 14.3155 20.9481 14.2203 20.9481 14.1252C20.9467 9.47944 20.9467 4.83252 20.9481 0.18677C20.9481 0.124513 20.962 0.0622566 20.9703 0C21.984 0 22.9963 0 24.0101 0V0Z" fill="#1195FF"></path>
    <path d="M27.1414 17.3262C30.8574 17.8277 34.361 18.6571 37.3424 20.6128C38.0284 21.0627 38.6575 21.6101 39.1782 22.1975C40.7224 23.9406 40.6974 25.9317 39.174 27.6913C37.9423 29.1138 36.2468 30.0394 34.3929 30.7701C31.4851 31.9165 28.3995 32.4768 25.2168 32.6918C21.6563 32.9326 18.1361 32.7329 14.67 31.9858C12.201 31.4537 9.83196 30.7019 7.81287 29.3558C7.00607 28.8178 6.24787 28.1753 5.65492 27.4669C4.26349 25.806 4.34542 23.9218 5.74101 22.2562C6.71029 21.1003 8.01561 20.2769 9.45425 19.5874C11.7025 18.509 15.1796 17.5799 17.8417 17.3544V17.7561C17.8417 19.2044 17.8417 20.654 17.8417 22.1023C17.8417 23.0937 18.4305 23.6012 19.5872 23.6023C21.523 23.6047 23.4587 23.6047 25.3959 23.6023C26.5513 23.6012 27.14 23.0937 27.1414 22.1023C27.1428 20.6657 27.1414 19.2303 27.1414 17.7937C27.1414 17.6562 27.1414 17.52 27.1414 17.3262ZM6.2076 24.9391C6.23259 25.1341 6.24092 25.2844 6.27286 25.4301C6.48255 26.3921 7.13799 27.1286 7.96146 27.7724C9.22651 28.7614 10.7179 29.4439 12.3162 29.9466C18.1638 31.7838 24.1142 31.9341 30.1326 30.6456C32.4558 30.1475 34.6554 29.3922 36.555 28.1142C37.4146 27.5351 38.1534 26.8608 38.5311 25.9657C38.6658 25.6462 38.713 25.3021 38.806 24.9497H37.2994C37.1508 25.2797 37.0925 25.6239 36.8717 25.853C36.3579 26.3839 35.8274 26.929 35.1914 27.3424C33.575 28.3926 31.6878 28.9834 29.7326 29.4133C25.9514 30.2438 22.1173 30.3672 18.2583 29.922C15.7226 29.6295 13.2647 29.0844 11.0179 28.0132C9.52785 27.3025 8.11004 26.5061 7.70317 24.9403H6.20899L6.2076 24.9391Z" fill="#1195FF"></path>
    <path d="M19.422 15.7545H25.5681V22.2726H19.422V15.7545Z" fill="#1195FF"></path>
    <path d="M3.13314 9.17637C3.57334 9.17637 3.98854 9.16228 4.40097 9.18577C4.49956 9.19164 4.65092 9.31028 4.67037 9.39486C5.02864 10.9149 5.92987 11.6431 7.72261 11.8182V13.0903C5.89099 13.2724 4.8495 14.1275 4.63565 15.7074H3.21923C3.03176 15.2564 2.91789 14.8088 2.66794 14.4224C2.1833 13.6706 1.39316 13.2418 0.379451 13.1479C0.105888 13.122 -0.0163127 13.0551 0.00173973 12.806C0.0253467 12.4818 0.00729431 12.1565 0.00729431 11.8346C2.08471 11.6537 3.02204 10.4908 3.13175 9.1752L3.13314 9.17637Z" fill="#1195FF"></path>
    <path d="M38.8074 7.20994C39.2351 7.20994 39.6642 7.19585 40.0905 7.22051C40.1808 7.22521 40.3155 7.36265 40.3349 7.45427C40.6516 8.91436 41.6305 9.69786 43.4163 9.85056V11.1168C41.5486 11.3024 40.4974 12.1681 40.2919 13.7504H38.8074C38.7491 13.4967 38.7255 13.2441 38.6311 13.0127C38.2089 11.9685 37.3619 11.333 36.0551 11.1826C35.7621 11.1486 35.6372 11.0769 35.658 10.8138C35.683 10.5025 35.6635 10.1889 35.6635 9.867C37.5479 9.68493 38.5825 8.80982 38.806 7.20994H38.8074Z" fill="#1195FF"></path>
    <path d="M27.1609 4.56704V3.30194C29.0147 3.13397 30.0423 2.26355 30.2728 0.689514H31.7573C31.9767 2.22948 32.989 3.12692 34.8734 3.30311V4.56352C33.0307 4.73384 31.985 5.60426 31.7614 7.18769H30.2784C30.0534 5.6395 29.0522 4.74794 27.1609 4.56822V4.56704Z" fill="#1195FF"></path>
    <path d="M16.2947 6.52987C14.5325 6.66613 13.3647 7.55769 13.148 9.15404H11.6761C11.4442 7.61525 10.4541 6.71547 8.57245 6.53809V5.27182C10.4068 5.09562 11.4428 4.2346 11.6622 2.65704H13.1661C13.2952 3.83757 13.959 4.67627 15.2824 5.09797C15.4476 5.15083 15.6295 5.21426 15.7976 5.20604C16.2683 5.1802 16.3322 5.39046 16.3003 5.71584C16.2725 5.98718 16.2947 6.26205 16.2947 6.52987Z" fill="#1195FF"></path>
    <path d="M14.7131 33.4083C16.3003 33.6197 17.8084 33.8206 19.3901 34.0308C19.2165 34.6193 19.0512 35.2255 18.854 35.8234C18.7429 36.1617 18.5999 36.4953 18.4374 36.8183C18.025 37.6406 17.0294 38.0763 15.9948 37.8896C15.1547 37.738 14.3604 37.4773 14.0257 36.7431C13.8674 36.3966 13.7771 35.962 13.873 35.6096C14.0799 34.8566 14.4284 34.1319 14.7131 33.4071V33.4083Z" fill="#1195FF"></path>
    <path d="M25.5403 34.0403C27.1734 33.8241 28.6815 33.6233 30.2853 33.4106C30.5645 34.1847 30.8672 34.9694 31.1213 35.767C31.1866 35.9714 31.1269 36.2204 31.0658 36.4365C30.8269 37.2799 29.8785 37.8626 28.6856 37.9201C27.7344 37.9659 26.8526 37.4738 26.5263 36.668C26.1777 35.8046 25.8722 34.9283 25.5403 34.0403Z" fill="#1195FF"></path>
    <path d="M24.0128 34.0943C24.2794 35.0164 24.571 35.9138 24.7849 36.8242C24.8501 37.099 24.7682 37.435 24.6349 37.7004C24.1183 38.733 22.8741 38.9021 21.5341 38.6179C20.4995 38.3982 19.9885 37.4996 20.2537 36.5422C20.4329 35.8938 20.6162 35.2466 20.8217 34.6041C21.0203 33.9838 20.8411 34.0896 21.6327 34.0931C22.4047 34.0966 23.1768 34.0931 24.0114 34.0931L24.0128 34.0943Z" fill="#1195FF"></path>
    <path d="M31.7351 33.0912C32.9488 32.673 34.1 32.2736 35.2553 31.8836C35.3359 31.8566 35.4608 31.8625 35.5386 31.8965C37.0856 32.572 37.2244 34.1354 35.8233 35.0152C35.365 35.303 34.9054 35.5709 34.2972 35.5673C33.4945 35.5626 32.8766 35.2748 32.5197 34.6746C32.2142 34.1624 31.9906 33.6151 31.7351 33.0923V33.0912Z" fill="#1195FF"></path>
    <path d="M13.2453 33.0876C12.9967 33.5986 12.7704 34.1166 12.4954 34.6158C12.1135 35.3089 11.3095 35.6848 10.4055 35.5368C9.29319 35.3559 7.78651 34.3551 8.2642 33.0747C8.46694 32.532 8.94602 32.2066 9.45149 31.893C9.50981 31.8566 9.61396 31.8695 9.69589 31.8672C9.72228 31.8672 9.74866 31.8895 9.77643 31.8989C10.9151 32.2889 12.0524 32.6788 13.2453 33.0876Z" fill="#1195FF"></path>
    <path d="M3.26068 23.8278C2.94407 25.026 3.15792 26.1243 3.70782 27.2578C3.10099 27.3541 2.54136 27.4998 1.97618 27.5221C0.977747 27.5621 0.139005 26.9089 0.039023 26.0691C0.000140887 25.746 -0.00124776 25.4136 0.039023 25.0906C0.154281 24.1191 1.22631 23.4613 2.36362 23.6458C2.65245 23.6928 2.93574 23.7609 3.26207 23.8267L3.26068 23.8278Z" fill="#1195FF"></path>
    <path d="M41.7291 23.8653C42.9206 23.4354 43.9398 23.5846 44.5536 24.26C45.1549 24.9213 45.1535 26.2992 44.5203 26.9194C43.701 27.7205 42.7956 27.6594 41.3069 27.1919C41.8166 26.1254 42.036 25.0271 41.7291 23.8653Z" fill="#1195FF"></path>
    <path d="M7.97118 31.1341C7.34074 31.4536 6.73112 31.8142 6.07013 32.0844C5.37164 32.3699 4.63705 32.2876 4.0677 31.8436C3.28589 31.234 2.98039 30.4399 3.19841 29.5507C3.31922 29.0597 3.70943 28.7014 4.26072 28.4994C4.35932 28.463 4.57039 28.4888 4.62733 28.5522C5.53828 29.553 6.66586 30.3448 7.9073 31.0308C7.92813 31.0425 7.93508 31.073 7.97118 31.1341Z" fill="#1195FF"></path>
    <path d="M37.0605 31.1447C37.9409 30.4998 38.7963 29.8808 39.6392 29.2477C39.8489 29.0903 40.0489 28.907 40.1891 28.7038C40.4252 28.362 40.6779 28.4325 40.9848 28.6086C41.6569 28.9951 41.9902 29.6788 41.8208 30.3518C41.818 30.3636 41.8152 30.3765 41.8125 30.3894C41.3667 32.344 39.5434 32.6776 38.1131 31.7086C37.7798 31.4818 37.3882 31.3162 37.0633 31.1435L37.0605 31.1447Z" fill="#1195FF"></path>
    <path d="M3.88577 22.3137C2.75542 21.5819 3.00815 20.3908 3.75524 19.4475C4.26904 18.7979 5.54104 18.4056 6.94079 19.3923C5.69934 20.2016 4.62314 21.1343 3.88577 22.3137Z" fill="#1195FF"></path>
    <path d="M41.0959 22.3078C40.3585 21.1437 39.3115 20.2087 38.0742 19.4193C38.9019 18.6358 40.3294 18.5735 41.1056 19.33C41.8777 20.0818 42.3193 21.5771 41.0959 22.3078Z" fill="#1195FF"></path>
  </symbol>
</svg>
